<mxfile host="65bd71144e">
    <diagram id="_tBszZQopWVpDAMUcyvg" name="Page-1">
        <mxGraphModel dx="990" dy="884" grid="1" gridSize="10" guides="1" tooltips="1" connect="1" arrows="1" fold="1" page="1" pageScale="1" pageWidth="850" pageHeight="1100" math="0" shadow="0">
            <root>
                <mxCell id="0"/>
                <mxCell id="1" parent="0"/>
                <mxCell id="3" value="Shell with:&amp;nbsp;&lt;br&gt;latin-1 encoding&lt;br&gt;kapl font" style="whiteSpace=wrap;html=1;fillColor=none;align=left;verticalAlign=top;" vertex="1" parent="1">
                    <mxGeometry x="520" y="550" width="230" height="200" as="geometry"/>
                </mxCell>
                <mxCell id="2" value="a+ interpreter" style="whiteSpace=wrap;html=1;" vertex="1" parent="1">
                    <mxGeometry x="580" y="620" width="120" height="60" as="geometry"/>
                </mxCell>
                <mxCell id="5" value="a+ interpreter" style="whiteSpace=wrap;html=1;" vertex="1" parent="1">
                    <mxGeometry x="580" y="200" width="120" height="60" as="geometry"/>
                </mxCell>
            </root>
        </mxGraphModel>
    </diagram>
</mxfile>